<mxfile host="app.diagrams.net" modified="2024-07-09T20:40:37.167Z" agent="Mozilla/5.0 (Windows NT 10.0; Win64; x64; rv:127.0) Gecko/20100101 Firefox/127.0" etag="rFhyi8vXeDCk2EiUKFuC" version="24.6.4" type="device">
  <diagram name="Page-1" id="lcZeZJ44SqKzm_LUfdse">
    <mxGraphModel dx="1235" dy="712" grid="1" gridSize="10" guides="1" tooltips="1" connect="1" arrows="1" fold="1" page="1" pageScale="1" pageWidth="850" pageHeight="1100" math="0" shadow="0">
      <root>
        <mxCell id="0" />
        <mxCell id="1" parent="0" />
        <mxCell id="-shIn0IaBMrwrsDSgYw_-1" value="Video" style="swimlane;fontStyle=1;align=center;verticalAlign=top;childLayout=stackLayout;horizontal=1;startSize=26;horizontalStack=0;resizeParent=1;resizeParentMax=0;resizeLast=0;collapsible=1;marginBottom=0;whiteSpace=wrap;html=1;" parent="1" vertex="1">
          <mxGeometry x="345" y="120" width="160" height="410" as="geometry" />
        </mxCell>
        <mxCell id="-shIn0IaBMrwrsDSgYw_-2" value="# id : Int" style="text;strokeColor=none;fillColor=none;align=left;verticalAlign=top;spacingLeft=4;spacingRight=4;overflow=hidden;rotatable=0;points=[[0,0.5],[1,0.5]];portConstraint=eastwest;whiteSpace=wrap;html=1;" parent="-shIn0IaBMrwrsDSgYw_-1" vertex="1">
          <mxGeometry y="26" width="160" height="26" as="geometry" />
        </mxCell>
        <mxCell id="-shIn0IaBMrwrsDSgYw_-8" value="# nombre : String" style="text;strokeColor=none;fillColor=none;align=left;verticalAlign=top;spacingLeft=4;spacingRight=4;overflow=hidden;rotatable=0;points=[[0,0.5],[1,0.5]];portConstraint=eastwest;whiteSpace=wrap;html=1;" parent="-shIn0IaBMrwrsDSgYw_-1" vertex="1">
          <mxGeometry y="52" width="160" height="26" as="geometry" />
        </mxCell>
        <mxCell id="-shIn0IaBMrwrsDSgYw_-6" value="# duracion : String" style="text;strokeColor=none;fillColor=none;align=left;verticalAlign=top;spacingLeft=4;spacingRight=4;overflow=hidden;rotatable=0;points=[[0,0.5],[1,0.5]];portConstraint=eastwest;whiteSpace=wrap;html=1;" parent="-shIn0IaBMrwrsDSgYw_-1" vertex="1">
          <mxGeometry y="78" width="160" height="26" as="geometry" />
        </mxCell>
        <mxCell id="-shIn0IaBMrwrsDSgYw_-7" value="# genero : String" style="text;strokeColor=none;fillColor=none;align=left;verticalAlign=top;spacingLeft=4;spacingRight=4;overflow=hidden;rotatable=0;points=[[0,0.5],[1,0.5]];portConstraint=eastwest;whiteSpace=wrap;html=1;" parent="-shIn0IaBMrwrsDSgYw_-1" vertex="1">
          <mxGeometry y="104" width="160" height="26" as="geometry" />
        </mxCell>
        <mxCell id="-shIn0IaBMrwrsDSgYw_-5" value="# calificacionPromedio : float" style="text;strokeColor=none;fillColor=none;align=left;verticalAlign=top;spacingLeft=4;spacingRight=4;overflow=hidden;rotatable=0;points=[[0,0.5],[1,0.5]];portConstraint=eastwest;whiteSpace=wrap;html=1;" parent="-shIn0IaBMrwrsDSgYw_-1" vertex="1">
          <mxGeometry y="130" width="160" height="26" as="geometry" />
        </mxCell>
        <mxCell id="-shIn0IaBMrwrsDSgYw_-22" value="# calificaciones : Vector&amp;lt;float&amp;gt;" style="text;strokeColor=none;fillColor=none;align=left;verticalAlign=top;spacingLeft=4;spacingRight=4;overflow=hidden;rotatable=0;points=[[0,0.5],[1,0.5]];portConstraint=eastwest;whiteSpace=wrap;html=1;" parent="-shIn0IaBMrwrsDSgYw_-1" vertex="1">
          <mxGeometry y="156" width="160" height="44" as="geometry" />
        </mxCell>
        <mxCell id="-shIn0IaBMrwrsDSgYw_-3" value="" style="line;strokeWidth=1;fillColor=none;align=left;verticalAlign=middle;spacingTop=-1;spacingLeft=3;spacingRight=3;rotatable=0;labelPosition=right;points=[];portConstraint=eastwest;strokeColor=inherit;" parent="-shIn0IaBMrwrsDSgYw_-1" vertex="1">
          <mxGeometry y="200" width="160" height="8" as="geometry" />
        </mxCell>
        <mxCell id="-shIn0IaBMrwrsDSgYw_-9" value="+ Video()" style="text;strokeColor=none;fillColor=none;align=left;verticalAlign=top;spacingLeft=4;spacingRight=4;overflow=hidden;rotatable=0;points=[[0,0.5],[1,0.5]];portConstraint=eastwest;whiteSpace=wrap;html=1;" parent="-shIn0IaBMrwrsDSgYw_-1" vertex="1">
          <mxGeometry y="208" width="160" height="26" as="geometry" />
        </mxCell>
        <mxCell id="-shIn0IaBMrwrsDSgYw_-4" value="+ Video(id : Int, nombre : String, duracion : String, genero : String, rating : Vector&amp;lt;float&amp;gt;)" style="text;strokeColor=none;fillColor=none;align=left;verticalAlign=top;spacingLeft=4;spacingRight=4;overflow=hidden;rotatable=0;points=[[0,0.5],[1,0.5]];portConstraint=eastwest;whiteSpace=wrap;html=1;" parent="-shIn0IaBMrwrsDSgYw_-1" vertex="1">
          <mxGeometry y="234" width="160" height="66" as="geometry" />
        </mxCell>
        <mxCell id="-shIn0IaBMrwrsDSgYw_-11" value="+ mostrarVideo() &amp;gt; Void" style="text;strokeColor=none;fillColor=none;align=left;verticalAlign=top;spacingLeft=4;spacingRight=4;overflow=hidden;rotatable=0;points=[[0,0.5],[1,0.5]];portConstraint=eastwest;whiteSpace=wrap;html=1;" parent="-shIn0IaBMrwrsDSgYw_-1" vertex="1">
          <mxGeometry y="300" width="160" height="30" as="geometry" />
        </mxCell>
        <mxCell id="-shIn0IaBMrwrsDSgYw_-37" value="+ agregarCalificaciÃ³n(calif : Float) : Void" style="text;strokeColor=none;fillColor=none;align=left;verticalAlign=top;spacingLeft=4;spacingRight=4;overflow=hidden;rotatable=0;points=[[0,0.5],[1,0.5]];portConstraint=eastwest;whiteSpace=wrap;html=1;" parent="-shIn0IaBMrwrsDSgYw_-1" vertex="1">
          <mxGeometry y="330" width="160" height="46" as="geometry" />
        </mxCell>
        <mxCell id="-shIn0IaBMrwrsDSgYw_-10" value="# calcularPromedio() : Float" style="text;strokeColor=none;fillColor=none;align=left;verticalAlign=top;spacingLeft=4;spacingRight=4;overflow=hidden;rotatable=0;points=[[0,0.5],[1,0.5]];portConstraint=eastwest;whiteSpace=wrap;html=1;" parent="-shIn0IaBMrwrsDSgYw_-1" vertex="1">
          <mxGeometry y="376" width="160" height="34" as="geometry" />
        </mxCell>
        <mxCell id="-shIn0IaBMrwrsDSgYw_-12" value="Pelicula" style="swimlane;fontStyle=1;align=center;verticalAlign=top;childLayout=stackLayout;horizontal=1;startSize=26;horizontalStack=0;resizeParent=1;resizeParentMax=0;resizeLast=0;collapsible=1;marginBottom=0;whiteSpace=wrap;html=1;" parent="1" vertex="1">
          <mxGeometry x="180" y="710" width="160" height="60" as="geometry" />
        </mxCell>
        <mxCell id="-shIn0IaBMrwrsDSgYw_-14" value="" style="line;strokeWidth=1;fillColor=none;align=left;verticalAlign=middle;spacingTop=-1;spacingLeft=3;spacingRight=3;rotatable=0;labelPosition=right;points=[];portConstraint=eastwest;strokeColor=inherit;" parent="-shIn0IaBMrwrsDSgYw_-12" vertex="1">
          <mxGeometry y="26" width="160" height="8" as="geometry" />
        </mxCell>
        <mxCell id="-shIn0IaBMrwrsDSgYw_-15" value="+ Pelicula()" style="text;strokeColor=none;fillColor=none;align=left;verticalAlign=top;spacingLeft=4;spacingRight=4;overflow=hidden;rotatable=0;points=[[0,0.5],[1,0.5]];portConstraint=eastwest;whiteSpace=wrap;html=1;" parent="-shIn0IaBMrwrsDSgYw_-12" vertex="1">
          <mxGeometry y="34" width="160" height="26" as="geometry" />
        </mxCell>
        <mxCell id="-shIn0IaBMrwrsDSgYw_-16" style="edgeStyle=orthogonalEdgeStyle;rounded=0;orthogonalLoop=1;jettySize=auto;html=1;exitX=0.5;exitY=0;exitDx=0;exitDy=0;entryX=0;entryY=0.035;entryDx=0;entryDy=0;entryPerimeter=0;strokeWidth=2;" parent="1" source="-shIn0IaBMrwrsDSgYw_-12" target="-shIn0IaBMrwrsDSgYw_-1" edge="1">
          <mxGeometry relative="1" as="geometry" />
        </mxCell>
        <mxCell id="-shIn0IaBMrwrsDSgYw_-17" value="Episodio" style="swimlane;fontStyle=1;align=center;verticalAlign=top;childLayout=stackLayout;horizontal=1;startSize=26;horizontalStack=0;resizeParent=1;resizeParentMax=0;resizeLast=0;collapsible=1;marginBottom=0;whiteSpace=wrap;html=1;" parent="1" vertex="1">
          <mxGeometry x="500" y="697" width="160" height="86" as="geometry" />
        </mxCell>
        <mxCell id="-shIn0IaBMrwrsDSgYw_-18" value="+ field: type" style="text;strokeColor=none;fillColor=none;align=left;verticalAlign=top;spacingLeft=4;spacingRight=4;overflow=hidden;rotatable=0;points=[[0,0.5],[1,0.5]];portConstraint=eastwest;whiteSpace=wrap;html=1;" parent="-shIn0IaBMrwrsDSgYw_-17" vertex="1">
          <mxGeometry y="26" width="160" height="26" as="geometry" />
        </mxCell>
        <mxCell id="-shIn0IaBMrwrsDSgYw_-19" value="" style="line;strokeWidth=1;fillColor=none;align=left;verticalAlign=middle;spacingTop=-1;spacingLeft=3;spacingRight=3;rotatable=0;labelPosition=right;points=[];portConstraint=eastwest;strokeColor=inherit;" parent="-shIn0IaBMrwrsDSgYw_-17" vertex="1">
          <mxGeometry y="52" width="160" height="8" as="geometry" />
        </mxCell>
        <mxCell id="-shIn0IaBMrwrsDSgYw_-20" value="+ Episodio()" style="text;strokeColor=none;fillColor=none;align=left;verticalAlign=top;spacingLeft=4;spacingRight=4;overflow=hidden;rotatable=0;points=[[0,0.5],[1,0.5]];portConstraint=eastwest;whiteSpace=wrap;html=1;" parent="-shIn0IaBMrwrsDSgYw_-17" vertex="1">
          <mxGeometry y="60" width="160" height="26" as="geometry" />
        </mxCell>
        <mxCell id="-shIn0IaBMrwrsDSgYw_-21" style="edgeStyle=orthogonalEdgeStyle;rounded=0;orthogonalLoop=1;jettySize=auto;html=1;exitX=0.5;exitY=0;exitDx=0;exitDy=0;entryX=0.994;entryY=0.044;entryDx=0;entryDy=0;entryPerimeter=0;strokeWidth=2;" parent="1" source="-shIn0IaBMrwrsDSgYw_-17" target="-shIn0IaBMrwrsDSgYw_-1" edge="1">
          <mxGeometry relative="1" as="geometry" />
        </mxCell>
        <mxCell id="-shIn0IaBMrwrsDSgYw_-42" style="edgeStyle=orthogonalEdgeStyle;rounded=0;orthogonalLoop=1;jettySize=auto;html=1;exitX=0;exitY=0.25;exitDx=0;exitDy=0;entryX=1;entryY=0.25;entryDx=0;entryDy=0;endArrow=diamondThin;endFill=1;strokeWidth=2;" parent="1" source="-shIn0IaBMrwrsDSgYw_-23" target="-shIn0IaBMrwrsDSgYw_-17" edge="1">
          <mxGeometry relative="1" as="geometry" />
        </mxCell>
        <mxCell id="-shIn0IaBMrwrsDSgYw_-23" value="Serie" style="swimlane;fontStyle=1;align=center;verticalAlign=top;childLayout=stackLayout;horizontal=1;startSize=26;horizontalStack=0;resizeParent=1;resizeParentMax=0;resizeLast=0;collapsible=1;marginBottom=0;whiteSpace=wrap;html=1;" parent="1" vertex="1">
          <mxGeometry x="800" y="507" width="160" height="180" as="geometry" />
        </mxCell>
        <mxCell id="-shIn0IaBMrwrsDSgYw_-24" value="- episodios : Vector&amp;lt;Episodio&amp;gt;" style="text;strokeColor=none;fillColor=none;align=left;verticalAlign=top;spacingLeft=4;spacingRight=4;overflow=hidden;rotatable=0;points=[[0,0.5],[1,0.5]];portConstraint=eastwest;whiteSpace=wrap;html=1;" parent="-shIn0IaBMrwrsDSgYw_-23" vertex="1">
          <mxGeometry y="26" width="160" height="44" as="geometry" />
        </mxCell>
        <mxCell id="-shIn0IaBMrwrsDSgYw_-25" value="" style="line;strokeWidth=1;fillColor=none;align=left;verticalAlign=middle;spacingTop=-1;spacingLeft=3;spacingRight=3;rotatable=0;labelPosition=right;points=[];portConstraint=eastwest;strokeColor=inherit;" parent="-shIn0IaBMrwrsDSgYw_-23" vertex="1">
          <mxGeometry y="70" width="160" height="8" as="geometry" />
        </mxCell>
        <mxCell id="-shIn0IaBMrwrsDSgYw_-26" value="+ Episodios()" style="text;strokeColor=none;fillColor=none;align=left;verticalAlign=top;spacingLeft=4;spacingRight=4;overflow=hidden;rotatable=0;points=[[0,0.5],[1,0.5]];portConstraint=eastwest;whiteSpace=wrap;html=1;" parent="-shIn0IaBMrwrsDSgYw_-23" vertex="1">
          <mxGeometry y="78" width="160" height="26" as="geometry" />
        </mxCell>
        <mxCell id="-shIn0IaBMrwrsDSgYw_-28" value="+ Episodios(episodios : Vector&amp;lt;Episodio&amp;gt;)" style="text;strokeColor=none;fillColor=none;align=left;verticalAlign=top;spacingLeft=4;spacingRight=4;overflow=hidden;rotatable=0;points=[[0,0.5],[1,0.5]];portConstraint=eastwest;whiteSpace=wrap;html=1;" parent="-shIn0IaBMrwrsDSgYw_-23" vertex="1">
          <mxGeometry y="104" width="160" height="46" as="geometry" />
        </mxCell>
        <mxCell id="-shIn0IaBMrwrsDSgYw_-29" value="+ mostrarVideo()" style="text;strokeColor=none;fillColor=none;align=left;verticalAlign=top;spacingLeft=4;spacingRight=4;overflow=hidden;rotatable=0;points=[[0,0.5],[1,0.5]];portConstraint=eastwest;whiteSpace=wrap;html=1;" parent="-shIn0IaBMrwrsDSgYw_-23" vertex="1">
          <mxGeometry y="150" width="160" height="30" as="geometry" />
        </mxCell>
        <mxCell id="-shIn0IaBMrwrsDSgYw_-27" style="edgeStyle=orthogonalEdgeStyle;rounded=0;orthogonalLoop=1;jettySize=auto;html=1;exitX=0.5;exitY=0;exitDx=0;exitDy=0;entryX=0.994;entryY=0.044;entryDx=0;entryDy=0;entryPerimeter=0;strokeWidth=2;" parent="1" source="-shIn0IaBMrwrsDSgYw_-23" target="-shIn0IaBMrwrsDSgYw_-1" edge="1">
          <mxGeometry relative="1" as="geometry" />
        </mxCell>
        <mxCell id="-shIn0IaBMrwrsDSgYw_-31" value="2..*" style="text;html=1;align=center;verticalAlign=middle;resizable=0;points=[];autosize=1;strokeColor=none;fillColor=none;" parent="1" vertex="1">
          <mxGeometry x="760" y="498" width="40" height="30" as="geometry" />
        </mxCell>
        <mxCell id="-shIn0IaBMrwrsDSgYw_-32" value="&lt;div&gt;1..1&lt;/div&gt;" style="text;html=1;align=center;verticalAlign=middle;resizable=0;points=[];autosize=1;strokeColor=none;fillColor=none;" parent="1" vertex="1">
          <mxGeometry x="660" y="667" width="40" height="30" as="geometry" />
        </mxCell>
        <mxCell id="-shIn0IaBMrwrsDSgYw_-33" value="Sistema" style="swimlane;fontStyle=1;align=center;verticalAlign=top;childLayout=stackLayout;horizontal=1;startSize=26;horizontalStack=0;resizeParent=1;resizeParentMax=0;resizeLast=0;collapsible=1;marginBottom=0;whiteSpace=wrap;html=1;" parent="1" vertex="1">
          <mxGeometry x="1160" y="120" width="160" height="190" as="geometry" />
        </mxCell>
        <mxCell id="-shIn0IaBMrwrsDSgYw_-35" value="" style="line;strokeWidth=1;fillColor=none;align=left;verticalAlign=middle;spacingTop=-1;spacingLeft=3;spacingRight=3;rotatable=0;labelPosition=right;points=[];portConstraint=eastwest;strokeColor=inherit;" parent="-shIn0IaBMrwrsDSgYw_-33" vertex="1">
          <mxGeometry y="26" width="160" height="8" as="geometry" />
        </mxCell>
        <mxCell id="-shIn0IaBMrwrsDSgYw_-36" value="+ mostrarPorCalificacion(calif : float) : void" style="text;strokeColor=none;fillColor=none;align=left;verticalAlign=top;spacingLeft=4;spacingRight=4;overflow=hidden;rotatable=0;points=[[0,0.5],[1,0.5]];portConstraint=eastwest;whiteSpace=wrap;html=1;" parent="-shIn0IaBMrwrsDSgYw_-33" vertex="1">
          <mxGeometry y="34" width="160" height="56" as="geometry" />
        </mxCell>
        <mxCell id="-shIn0IaBMrwrsDSgYw_-40" value="+ mostrarPorGenero(genero : String) : void" style="text;strokeColor=none;fillColor=none;align=left;verticalAlign=top;spacingLeft=4;spacingRight=4;overflow=hidden;rotatable=0;points=[[0,0.5],[1,0.5]];portConstraint=eastwest;whiteSpace=wrap;html=1;" parent="-shIn0IaBMrwrsDSgYw_-33" vertex="1">
          <mxGeometry y="90" width="160" height="40" as="geometry" />
        </mxCell>
        <mxCell id="-shIn0IaBMrwrsDSgYw_-38" value="+ cargarArchivo() : Void" style="text;strokeColor=none;fillColor=none;align=left;verticalAlign=top;spacingLeft=4;spacingRight=4;overflow=hidden;rotatable=0;points=[[0,0.5],[1,0.5]];portConstraint=eastwest;whiteSpace=wrap;html=1;" parent="-shIn0IaBMrwrsDSgYw_-33" vertex="1">
          <mxGeometry y="130" width="160" height="30" as="geometry" />
        </mxCell>
        <mxCell id="-shIn0IaBMrwrsDSgYw_-39" value="+ calificar() : Void" style="text;strokeColor=none;fillColor=none;align=left;verticalAlign=top;spacingLeft=4;spacingRight=4;overflow=hidden;rotatable=0;points=[[0,0.5],[1,0.5]];portConstraint=eastwest;whiteSpace=wrap;html=1;" parent="-shIn0IaBMrwrsDSgYw_-33" vertex="1">
          <mxGeometry y="160" width="160" height="30" as="geometry" />
        </mxCell>
      </root>
    </mxGraphModel>
  </diagram>
</mxfile>
